<?xml version="1.0" encoding="utf-8"?>
<!-- Generator: Adobe Illustrator 27.7.0, SVG Export Plug-In . SVG Version: 6.00 Build 0)  -->
<svg version="1.1" id="Réteg_1" xmlns="http://www.w3.org/2000/svg" xmlns:xlink="http://www.w3.org/1999/xlink" x="0px" y="0px"
	 viewBox="0 0 1200 630" style="enable-background:new 0 0 1200 630;" xml:space="preserve">
<style type="text/css">
	.st0{fill:#00ADCB;}
	.st1{fill:#1C2442;}
</style>
<g>
	<g>
		<path class="st0" d="M578.35,425.58c61.53-61.53,61.53-161.29,0-222.83c-54.6-54.6-139.31-60.74-200.7-18.44l28.51,28.51
			c45.4-27.27,105.17-21.34,144.32,17.8c46.14,46.14,46.14,120.95,0,167.08c-45.83,45.83-119.94,46.13-166.15,0.91l-10.82,10.82
			c-42.92-42.92-50.48-107.81-22.69-158.48l-18.59-18.59c-36.89,60.64-29.13,140.79,23.28,193.21
			C417.06,487.11,516.82,487.11,578.35,425.58z"/>
	</g>
	<path class="st1" d="M466.96,118.22c108.55,0,196.69,87.29,198.11,195.5h66.1C729.75,169,612.01,52.12,466.96,52.12
		c-145.94,0-264.25,118.31-264.25,264.25c0,129.51,93.17,237.24,216.14,259.86v-67.61c-86.18-21.5-150.04-99.41-150.04-192.25
		C268.81,206.93,357.53,118.22,466.96,118.22z"/>
	<circle class="st1" cx="467.38" cy="312.96" r="68.07"/>
	<g>
		<g>
			<path class="st1" d="M672.46,342.63h18.96c4.53,0,8.54,0.86,12.01,2.57c3.48,1.71,6.18,4.12,8.11,7.23
				c1.93,3.11,2.89,6.72,2.89,10.85s-0.96,7.75-2.89,10.85c-1.93,3.11-4.63,5.51-8.11,7.23c-3.48,1.71-7.48,2.57-12.01,2.57h-18.96
				V342.63z M690.94,376.07c4.17,0,7.5-1.15,9.99-3.45c2.48-2.3,3.73-5.42,3.73-9.35c0-3.93-1.24-7.05-3.73-9.35
				c-2.48-2.3-5.81-3.45-9.99-3.45h-8.82v25.6H690.94z"/>
			<path class="st1" d="M721.71,342.63h9.66v41.29h-9.66V342.63z"/>
			<path class="st1" d="M769.47,362.63h8.82v16.75c-2.27,1.69-4.89,2.99-7.87,3.89c-2.98,0.9-5.98,1.36-9,1.36
				c-4.33,0-8.23-0.91-11.69-2.74c-3.46-1.83-6.17-4.37-8.14-7.61c-1.97-3.24-2.95-6.91-2.95-11c0-4.09,0.98-7.76,2.95-11
				c1.97-3.24,4.7-5.78,8.2-7.61c3.5-1.83,7.43-2.74,11.81-2.74c3.66,0,6.98,0.61,9.96,1.83c2.98,1.22,5.49,2.99,7.51,5.31
				l-6.2,5.66c-2.98-3.11-6.58-4.66-10.79-4.66c-2.66,0-5.03,0.55-7.1,1.65c-2.07,1.1-3.68,2.65-4.83,4.66
				c-1.15,2.01-1.73,4.31-1.73,6.9c0,2.56,0.58,4.84,1.73,6.84c1.15,2.01,2.75,3.57,4.8,4.69c2.05,1.12,4.38,1.68,7.01,1.68
				c2.78,0,5.29-0.59,7.51-1.77V362.63z"/>
			<path class="st1" d="M787.23,342.63h9.66v41.29h-9.66V342.63z"/>
			<path class="st1" d="M815.44,350.42h-13.36v-7.79h36.37v7.79H825.1v33.5h-9.66V350.42z"/>
			<path class="st1" d="M869.04,375.07h-19.38l-3.7,8.85h-9.9l18.6-41.29h9.54l18.66,41.29h-10.14L869.04,375.07z M866,367.82
				l-6.62-15.81l-6.62,15.81H866z M862.06,330.77h10.02l-10.79,8.49h-7.27L862.06,330.77z"/>
			<path class="st1" d="M887.22,342.63h9.66v33.5h20.93v7.79h-30.59V342.63z"/>
			<path class="st1" d="M923.24,342.63h9.66v41.29h-9.66V342.63z"/>
			<path class="st1" d="M946.94,383.3c-3.08-0.88-5.56-2.03-7.42-3.45l3.28-7.2c1.79,1.3,3.91,2.34,6.38,3.13
				c2.46,0.79,4.93,1.18,7.39,1.18c2.74,0,4.77-0.4,6.08-1.21c1.31-0.81,1.97-1.88,1.97-3.21c0-0.98-0.39-1.8-1.16-2.45
				c-0.78-0.65-1.77-1.17-2.98-1.56c-1.21-0.39-2.85-0.83-4.92-1.3c-3.18-0.75-5.78-1.49-7.81-2.24c-2.03-0.75-3.77-1.95-5.22-3.6
				c-1.45-1.65-2.18-3.85-2.18-6.61c0-2.4,0.66-4.57,1.97-6.52c1.31-1.95,3.29-3.49,5.93-4.63c2.64-1.14,5.87-1.71,9.69-1.71
				c2.66,0,5.27,0.32,7.81,0.94c2.54,0.63,4.77,1.53,6.68,2.71l-2.98,7.25c-3.86-2.16-7.71-3.24-11.57-3.24
				c-2.7,0-4.7,0.43-5.99,1.3c-1.29,0.87-1.94,2.01-1.94,3.42c0,1.42,0.75,2.47,2.24,3.16c1.49,0.69,3.77,1.37,6.83,2.04
				c3.18,0.75,5.78,1.49,7.81,2.24c2.03,0.75,3.77,1.93,5.22,3.54c1.45,1.61,2.18,3.8,2.18,6.55c0,2.36-0.67,4.51-2,6.46
				c-1.33,1.95-3.33,3.49-5.99,4.63c-2.66,1.14-5.9,1.71-9.72,1.71C953.21,384.63,950.02,384.18,946.94,383.3z"/>
			<path class="st1" d="M631.5,410.46v10.91h19.32v7.67H631.5v15.04h-9.66v-41.29h31.54v7.67H631.5z"/>
			<path class="st1" d="M692.25,436.42v7.67h-32.32v-41.29h31.54v7.67h-21.94v8.97h19.38v7.43h-19.38v9.56H692.25z"/>
			<path class="st1" d="M699.86,443.23c-2.37-1.04-4.3-2.53-5.81-4.45l5.37-6.37c2.27,3.03,4.85,4.54,7.75,4.54
				c3.94,0,5.9-2.28,5.9-6.84v-19.64H698.4v-7.67h24.27v26.78c0,5.07-1.27,8.88-3.82,11.41c-2.54,2.54-6.28,3.8-11.21,3.8
				C704.81,444.79,702.22,444.27,699.86,443.23z"/>
			<path class="st1" d="M732.2,402.79h9.66v33.5h20.93v7.79H732.2V402.79z"/>
			<path class="st1" d="M800.53,436.42v7.67h-32.32v-41.29h31.54v7.67h-21.94v8.97h19.38v7.43h-19.38v9.56H800.53z"/>
			<path class="st1" d="M812.37,443.46c-3.08-0.88-5.56-2.03-7.42-3.45l3.28-7.2c1.79,1.3,3.91,2.34,6.38,3.13
				c2.46,0.79,4.93,1.18,7.39,1.18c2.74,0,4.77-0.4,6.08-1.21c1.31-0.81,1.97-1.88,1.97-3.21c0-0.98-0.39-1.8-1.16-2.45
				c-0.78-0.65-1.77-1.17-2.98-1.56c-1.21-0.39-2.85-0.83-4.92-1.3c-3.18-0.75-5.78-1.49-7.81-2.24c-2.03-0.75-3.77-1.95-5.22-3.6
				c-1.45-1.65-2.18-3.85-2.18-6.61c0-2.4,0.66-4.57,1.97-6.52c1.31-1.95,3.29-3.49,5.93-4.63c2.64-1.14,5.87-1.71,9.69-1.71
				c2.66,0,5.27,0.32,7.81,0.94c2.54,0.63,4.77,1.53,6.68,2.71l-2.98,7.25c-3.86-2.16-7.71-3.24-11.57-3.24
				c-2.7,0-4.7,0.43-5.99,1.3c-1.29,0.87-1.94,2.01-1.94,3.42c0,1.42,0.75,2.47,2.24,3.16c1.49,0.69,3.77,1.37,6.83,2.04
				c3.18,0.75,5.78,1.49,7.81,2.24c2.03,0.75,3.77,1.93,5.22,3.54c1.45,1.61,2.18,3.8,2.18,6.55c0,2.36-0.67,4.51-2,6.46
				c-1.33,1.95-3.33,3.49-5.99,4.63c-2.66,1.14-5.9,1.71-9.72,1.71C818.64,444.79,815.45,444.35,812.37,443.46z"/>
			<path class="st1" d="M880.07,436.3v7.79h-36.49v-6.19l22.9-27.31h-22.42v-7.79h35.12v6.19l-22.84,27.31H880.07z"/>
			<path class="st1" d="M894.92,410.58h-13.36v-7.79h36.37v7.79h-13.36v33.5h-9.66V410.58z"/>
			<path class="st1" d="M955.43,436.42v7.67h-32.32v-41.29h31.54v7.67h-21.94v8.97h19.38v7.43h-19.38v9.56H955.43z M941.54,390.94
				h10.02l-10.79,8.49h-7.27L941.54,390.94z"/>
			<path class="st1" d="M967.27,443.46c-3.08-0.88-5.56-2.03-7.42-3.45l3.28-7.2c1.79,1.3,3.91,2.34,6.38,3.13
				c2.46,0.79,4.93,1.18,7.39,1.18c2.74,0,4.77-0.4,6.08-1.21c1.31-0.81,1.97-1.88,1.97-3.21c0-0.98-0.39-1.8-1.16-2.45
				c-0.78-0.65-1.77-1.17-2.98-1.56c-1.21-0.39-2.85-0.83-4.92-1.3c-3.18-0.75-5.78-1.49-7.81-2.24c-2.03-0.75-3.77-1.95-5.22-3.6
				c-1.45-1.65-2.18-3.85-2.18-6.61c0-2.4,0.66-4.57,1.97-6.52c1.31-1.95,3.29-3.49,5.93-4.63c2.64-1.14,5.87-1.71,9.69-1.71
				c2.66,0,5.27,0.32,7.81,0.94c2.54,0.63,4.77,1.53,6.68,2.71l-2.98,7.25c-3.86-2.16-7.71-3.24-11.57-3.24
				c-2.7,0-4.7,0.43-5.99,1.3c-1.29,0.87-1.94,2.01-1.94,3.42c0,1.42,0.75,2.47,2.24,3.16c1.49,0.69,3.77,1.37,6.83,2.04
				c3.18,0.75,5.78,1.49,7.81,2.24c2.03,0.75,3.77,1.93,5.22,3.54c1.45,1.61,2.18,3.8,2.18,6.55c0,2.36-0.67,4.51-2,6.46
				c-1.33,1.95-3.33,3.49-5.99,4.63c-2.66,1.14-5.9,1.71-9.72,1.71C973.54,444.79,970.35,444.35,967.27,443.46z"/>
			<path class="st1" d="M1001.17,402.79h9.66v41.29h-9.66V402.79z"/>
			<path class="st1" d="M552.68,488.03l-5.6,5.78v10.44h-9.6v-41.29h9.6v19.29l18.48-19.29h10.73L559,481.36l18.3,22.89h-11.27
				L552.68,488.03z"/>
			<path class="st1" d="M588.6,502.18c-3.48-1.85-6.2-4.39-8.17-7.64c-1.97-3.24-2.95-6.89-2.95-10.94c0-4.05,0.98-7.7,2.95-10.94
				c1.97-3.24,4.69-5.79,8.17-7.64c3.48-1.85,7.38-2.77,11.72-2.77c4.33,0,8.23,0.92,11.69,2.77c3.46,1.85,6.18,4.39,8.17,7.64
				c1.99,3.24,2.98,6.89,2.98,10.94c0,4.05-0.99,7.7-2.98,10.94c-1.99,3.24-4.71,5.79-8.17,7.64c-3.46,1.85-7.35,2.77-11.69,2.77
				C595.98,504.96,592.08,504.03,588.6,502.18z M606.99,495.13c1.99-1.12,3.55-2.68,4.68-4.69c1.13-2.01,1.7-4.29,1.7-6.84
				c0-2.56-0.57-4.84-1.7-6.84c-1.13-2.01-2.69-3.57-4.68-4.69c-1.99-1.12-4.21-1.68-6.68-1.68c-2.47,0-4.69,0.56-6.68,1.68
				c-1.99,1.12-3.55,2.68-4.68,4.69c-1.13,2.01-1.7,4.29-1.7,6.84c0,2.56,0.57,4.84,1.7,6.84c1.13,2.01,2.69,3.57,4.68,4.69
				c1.99,1.12,4.21,1.68,6.68,1.68C602.78,496.82,605.01,496.26,606.99,495.13z M591.31,458.15c-0.8-0.77-1.19-1.74-1.19-2.92
				c0-1.18,0.4-2.15,1.19-2.92c0.79-0.77,1.79-1.15,2.98-1.15s2.18,0.38,2.95,1.15c0.78,0.77,1.16,1.74,1.16,2.92
				c0,1.18-0.39,2.15-1.16,2.92c-0.78,0.77-1.76,1.15-2.95,1.15S592.11,458.92,591.31,458.15z M603.39,458.15
				c-0.78-0.77-1.16-1.74-1.16-2.92c0-1.18,0.39-2.15,1.16-2.92c0.78-0.77,1.76-1.15,2.95-1.15s2.19,0.38,2.98,1.15
				c0.79,0.77,1.19,1.74,1.19,2.92c0,1.18-0.4,2.15-1.19,2.92c-0.8,0.77-1.79,1.15-2.98,1.15S604.16,458.92,603.39,458.15z"/>
			<path class="st1" d="M663.82,496.46v7.79h-36.49v-6.19l22.9-27.31H627.8v-7.79h35.12v6.19l-22.84,27.31H663.82z"/>
			<path class="st1" d="M697.71,464.79c2.72,1.22,4.82,2.95,6.29,5.19c1.47,2.24,2.21,4.9,2.21,7.96c0,3.03-0.74,5.67-2.21,7.93
				c-1.47,2.26-3.57,3.99-6.29,5.19c-2.72,1.2-5.93,1.8-9.63,1.8h-8.41v11.38h-9.66v-41.29h18.07
				C691.78,462.96,694.99,463.57,697.71,464.79z M694.17,483.22c1.51-1.24,2.27-3,2.27-5.28c0-2.32-0.76-4.1-2.27-5.34
				c-1.51-1.24-3.72-1.86-6.62-1.86h-7.87v14.33h7.87C690.45,485.08,692.65,484.46,694.17,483.22z"/>
			<path class="st1" d="M722.16,502.18c-3.48-1.85-6.2-4.39-8.17-7.64c-1.97-3.24-2.95-6.89-2.95-10.94c0-4.05,0.98-7.7,2.95-10.94
				c1.97-3.24,4.69-5.79,8.17-7.64c3.48-1.85,7.38-2.77,11.72-2.77c4.33,0,8.23,0.92,11.69,2.77c3.46,1.85,6.18,4.39,8.17,7.64
				c1.99,3.24,2.98,6.89,2.98,10.94c0,4.05-0.99,7.7-2.98,10.94c-1.99,3.24-4.71,5.79-8.17,7.64c-3.46,1.85-7.35,2.77-11.69,2.77
				C729.54,504.96,725.64,504.03,722.16,502.18z M740.55,495.13c1.99-1.12,3.55-2.68,4.68-4.69c1.13-2.01,1.7-4.29,1.7-6.84
				c0-2.56-0.57-4.84-1.7-6.84c-1.13-2.01-2.69-3.57-4.68-4.69c-1.99-1.12-4.21-1.68-6.68-1.68c-2.47,0-4.69,0.56-6.68,1.68
				c-1.99,1.12-3.55,2.68-4.68,4.69c-1.13,2.01-1.7,4.29-1.7,6.84c0,2.56,0.57,4.84,1.7,6.84c1.13,2.01,2.69,3.57,4.68,4.69
				c1.99,1.12,4.21,1.68,6.68,1.68C736.34,496.82,738.57,496.26,740.55,495.13z"/>
			<path class="st1" d="M802.27,462.96v41.29h-7.93l-20.81-25.07v25.07h-9.54v-41.29h7.99l20.75,25.07v-25.07H802.27z"/>
			<path class="st1" d="M820.81,470.74h-13.36v-7.79h36.37v7.79h-13.36v33.5h-9.66V470.74z"/>
		</g>
	</g>
	<g>
		<path class="st0" d="M439.66,534.45c3.26,0,6.16,0.84,8.7,2.52l-1.33,2.91c-2.3-1.52-4.82-2.29-7.56-2.29
			c-1.78,0-3.19,0.32-4.25,0.95c-1.06,0.63-1.59,1.52-1.59,2.66c0,1.09,0.38,1.99,1.14,2.71c0.76,0.72,1.71,1.26,2.86,1.61
			c1.15,0.35,2.39,0.75,3.72,1.2c1.33,0.45,2.57,0.92,3.7,1.41c1.14,0.49,2.08,1.27,2.84,2.35c0.76,1.07,1.14,2.37,1.14,3.9
			c0,2.25-0.91,4.05-2.74,5.41c-1.83,1.36-4.22,2.03-7.17,2.03c-1.96,0-3.87-0.37-5.72-1.12c-1.86-0.75-3.45-1.76-4.78-3.02
			l1.41-2.79c1.25,1.21,2.7,2.16,4.33,2.83c1.63,0.67,3.23,1.01,4.8,1.01c1.98,0,3.55-0.37,4.7-1.12c1.15-0.75,1.72-1.77,1.72-3.06
			c0-0.96-0.28-1.77-0.84-2.44c-0.56-0.67-1.29-1.19-2.19-1.57c-0.9-0.37-1.9-0.72-3-1.05c-1.1-0.32-2.19-0.67-3.29-1.05
			c-1.1-0.37-2.1-0.83-3.02-1.36c-0.91-0.53-1.65-1.27-2.21-2.21c-0.56-0.94-0.84-2.07-0.84-3.39c0-2.12,0.87-3.82,2.61-5.1
			C434.52,535.09,436.81,534.45,439.66,534.45z"/>
		<path class="st0" d="M475.28,537.05l-18.18,21.71h18.38l-0.04,2.95h-22.45v-2.48l18.18-21.67h-17.67v-2.98h21.79V537.05z"/>
		<path class="st0" d="M499.92,537.55h-15.48v8.92h13.83v2.98h-13.83v9.3h15.99v2.95h-19.12v-27.13h18.61V537.55z M496.48,527.4
			l-4.86,3.8h-2.94l4.7-5.27L496.48,527.4z"/>
		<path class="st0" d="M518.54,534.49c1.85,0,3.66,0.35,5.41,1.05c1.75,0.7,3.29,1.67,4.62,2.91l-1.88,2.36
			c-2.25-2.27-4.95-3.41-8.11-3.41c-3.11,0-5.75,1.04-7.91,3.12c-2.17,2.08-3.25,4.61-3.25,7.58c0,2.97,1.09,5.5,3.27,7.58
			c2.18,2.08,4.81,3.12,7.9,3.12c3.08,0,5.79-1.09,8.11-3.26l1.92,2.13c-3,2.79-6.4,4.19-10.19,4.19c-3.94,0-7.29-1.33-10.05-3.99
			c-2.76-2.66-4.13-5.92-4.13-9.77c0-3.8,1.39-7.02,4.17-9.65C511.19,535.81,514.56,534.49,518.54,534.49z"/>
		<path class="st0" d="M557.05,561.7h-3.13v-11.94h-16.54v11.94h-3.13v-27.13h3.13v12.25h16.54v-12.25h3.13V561.7z"/>
		<path class="st0" d="M583.97,537.55h-15.48v8.92h13.83v2.98h-13.83v9.3h15.99v2.95h-19.12v-27.13h18.61V537.55z"/>
		<path class="st0" d="M613.67,561.7h-3.21L594,539.92v21.78h-3.13v-27.13h3.25l16.46,21.82v-21.82h3.1V561.7z"/>
		<path class="st0" d="M631.74,552.4v9.3h-3.1v-9.19l-10.62-17.95h3.25l8.89,14.15l8.78-14.15h3.21L631.74,552.4z"/>
		<path class="st0" d="M649.64,561.7h-3.13v-27.13h3.13V561.7z"/>
		<path class="st0" d="M671.82,561.7h-3.13v-27.13h3.13V561.7z"/>
		<path class="st0" d="M688.28,534.45c3.26,0,6.16,0.84,8.7,2.52l-1.33,2.91c-2.3-1.52-4.82-2.29-7.56-2.29
			c-1.78,0-3.19,0.32-4.25,0.95c-1.06,0.63-1.59,1.52-1.59,2.66c0,1.09,0.38,1.99,1.14,2.71c0.76,0.72,1.71,1.26,2.86,1.61
			c1.15,0.35,2.39,0.75,3.72,1.2c1.33,0.45,2.57,0.92,3.7,1.41c1.14,0.49,2.08,1.27,2.84,2.35c0.76,1.07,1.14,2.37,1.14,3.9
			c0,2.25-0.91,4.05-2.74,5.41c-1.83,1.36-4.22,2.03-7.17,2.03c-1.96,0-3.87-0.37-5.72-1.12c-1.86-0.75-3.45-1.76-4.78-3.02
			l1.41-2.79c1.25,1.21,2.7,2.16,4.33,2.83c1.63,0.67,3.23,1.01,4.8,1.01c1.98,0,3.55-0.37,4.7-1.12c1.15-0.75,1.72-1.77,1.72-3.06
			c0-0.96-0.28-1.77-0.84-2.44c-0.56-0.67-1.29-1.19-2.19-1.57c-0.9-0.37-1.9-0.72-3-1.05c-1.1-0.32-2.19-0.67-3.29-1.05
			c-1.1-0.37-2.1-0.83-3.02-1.36c-0.91-0.53-1.65-1.27-2.21-2.21c-0.56-0.94-0.84-2.07-0.84-3.39c0-2.12,0.87-3.82,2.61-5.1
			C683.14,535.09,685.43,534.45,688.28,534.45z"/>
		<path class="st0" d="M721.39,537.55h-8.97v24.15h-3.13v-24.15h-8.93v-2.98h21.04V537.55z"/>
		<path class="st0" d="M736.39,561.7h-3.25l-11.13-27.13h3.37l9.44,23.53l9.48-23.53h3.29L736.39,561.7z"/>
		<path class="st0" d="M767.54,554.84h-14.97l-3.06,6.86h-3.33l12.3-27.13h3.25l12.26,27.13h-3.41L767.54,554.84z M766.21,551.85
			l-6.19-13.76l-6.11,13.76H766.21z M760.96,531.19h-2.94l4.7-5.27l3.1,1.47L760.96,531.19z"/>
		<path class="st0" d="M801.12,561.7h-3.21l-16.46-21.78v21.78h-3.13v-27.13h3.25l16.46,21.82v-21.82h3.1V561.7z"/>
		<path class="st0" d="M838.82,537.55h-15.48v8.92h13.83v2.98h-13.83v9.3h15.99v2.95H820.2v-27.13h18.61V537.55z"/>
		<path class="st0" d="M864.83,548.44h2.78v9.85c-1.38,1.09-2.98,1.95-4.78,2.6c-1.8,0.65-3.6,0.97-5.41,0.97
			c-3.97,0-7.35-1.33-10.13-3.99c-2.78-2.66-4.17-5.9-4.17-9.73c0-3.82,1.4-7.05,4.19-9.69c2.8-2.64,6.22-3.95,10.27-3.95
			c3.89,0,7.26,1.24,10.11,3.72l-1.8,2.33c-2.38-2.09-5.15-3.14-8.31-3.14c-3.13,0-5.8,1.05-7.99,3.14
			c-2.19,2.09-3.29,4.63-3.29,7.6c0,3,1.1,5.54,3.31,7.64c2.21,2.09,4.88,3.14,8.01,3.14c2.56,0,4.96-0.76,7.21-2.29V548.44z"/>
		<path class="st0" d="M884.93,552.4v9.3h-3.1v-9.19l-10.62-17.95h3.25l8.89,14.15l8.78-14.15h3.21L884.93,552.4z"/>
		<path class="st0" d="M918.32,537.55h-15.48v8.92h13.83v2.98h-13.83v9.3h15.99v2.95h-19.12v-27.13h18.61V537.55z"/>
		<path class="st0" d="M942.53,537.55h-8.97v24.15h-3.13v-24.15h-8.93v-2.98h21.04V537.55z"/>
		<path class="st0" d="M965.69,537.55h-15.48v8.92h13.83v2.98h-13.83v9.3h15.99v2.95h-19.12v-27.13h18.61V537.55z"/>
		<path class="st0" d="M1000.33,561.7h-2.9l-0.04-22.37l-9.99,19.5h-1.88l-9.95-19.5v22.37h-2.98v-27.13h3.88l10.03,19.54
			l9.99-19.54h3.84V561.7z"/>
	</g>
</g>
</svg>
